<svg width="395" height="320" viewBox="0 0 395 320" fill="none" xmlns="http://www.w3.org/2000/svg">
<rect width="395" height="320" rx="1" fill="#27272A"/>
<mask id="path-2-outside-1_14_2" maskUnits="userSpaceOnUse" x="35.8014" y="72.4768" width="307.848" height="199.757" fill="black">
<rect fill="white" x="35.8014" y="72.4768" width="307.848" height="199.757"/>
<path d="M62.9144 216.261L66.5081 222.83L58.5912 227.161L71.238 250.28L62.9843 254.795L50.3374 231.676L42.5048 235.961L38.9111 229.392L62.9144 216.261ZM79.8197 220.308C80.0089 218.454 80.5483 216.773 81.4378 215.265C82.3273 213.757 83.53 212.589 85.046 211.759L89.8605 220.56L87.5444 221.827C85.7477 222.81 84.6062 223.891 84.1198 225.069C83.6334 226.247 83.8663 227.706 84.8185 229.446L90.4624 239.764L82.2086 244.279L69.2853 220.654L77.5391 216.139L79.8197 220.308ZM117.004 209.542C117.357 210.188 117.668 210.857 117.937 211.548L102.314 220.095C103.104 221.34 103.985 222.117 104.956 222.425C105.94 222.689 106.923 222.552 107.905 222.015C109.281 221.262 109.926 220.107 109.839 218.55L118.641 213.735C119.166 215.563 119.249 217.414 118.889 219.289C118.541 221.121 117.767 222.839 116.566 224.445C115.365 226.05 113.796 227.382 111.859 228.442C109.529 229.717 107.182 230.362 104.82 230.378C102.486 230.378 100.3 229.75 98.2632 228.493C96.2543 227.221 94.5741 225.35 93.2227 222.879C91.8712 220.409 91.2094 217.999 91.2372 215.649C91.2496 213.272 91.8855 211.1 93.1447 209.135C94.432 207.154 96.2547 205.518 98.613 204.228C100.943 202.954 103.268 202.302 105.587 202.274C107.905 202.245 110.062 202.853 112.055 204.097C114.033 205.313 115.683 207.128 117.004 209.542ZM107.453 212.086C106.9 211.075 106.133 210.474 105.152 210.281C104.156 210.06 103.152 210.226 102.141 210.778C101.131 211.331 100.456 212.065 100.118 212.98C99.7637 213.866 99.7803 214.897 100.167 216.071L107.453 212.086ZM129.409 187.491C132.132 186.002 134.793 185.731 137.391 186.681C139.974 187.602 142.111 189.607 143.8 192.695L151.333 206.465L143.079 210.981L136.145 198.305C135.408 196.958 134.481 196.097 133.365 195.723C132.233 195.321 131.077 195.442 129.898 196.087C128.663 196.763 127.909 197.686 127.638 198.856C127.35 199.998 127.575 201.242 128.313 202.59L135.246 215.265L126.993 219.78L114.069 196.156L122.323 191.641L124.166 195.01C124.312 193.544 124.827 192.15 125.709 190.829C126.575 189.479 127.809 188.367 129.409 187.491ZM148.041 192.892C146.705 190.449 145.973 188.078 145.845 185.777C145.745 183.461 146.198 181.389 147.205 179.562C148.212 177.734 149.655 176.306 151.536 175.277C153.052 174.448 154.576 174.034 156.109 174.034C157.654 173.992 159.063 174.334 160.335 175.06L154.438 164.279L162.734 159.741L179.781 190.903L171.485 195.442L169.688 192.157C169.641 193.605 169.205 194.974 168.379 196.265C167.553 197.556 166.34 198.639 164.74 199.514C162.859 200.543 160.878 200.989 158.796 200.851C156.743 200.697 154.768 199.954 152.871 198.621C150.987 197.244 149.377 195.334 148.041 192.892ZM165.054 183.585C164.225 182.069 163.151 181.107 161.832 180.697C160.542 180.272 159.294 180.39 158.086 181.05C156.851 181.726 156.064 182.722 155.726 184.037C155.373 185.325 155.619 186.741 156.463 188.285C157.293 189.801 158.36 190.785 159.666 191.238C160.956 191.663 162.219 191.538 163.454 190.862C164.661 190.202 165.434 189.214 165.772 187.898C166.138 186.567 165.899 185.129 165.054 183.585ZM196.996 150.792L201.078 193.861L192.109 198.768L191.048 183.427L168.992 166.112L178.172 161.09L190.467 171.763L187.942 155.745L196.996 150.792ZM247.637 153.784L239.383 158.299L219.316 147.72L228.392 164.311L220.139 168.826L203.898 139.138L212.152 134.623L232.334 145.413L223.143 128.611L231.397 124.096L247.637 153.784ZM268.299 126.779C268.652 127.424 268.963 128.093 269.232 128.785L253.609 137.331C254.4 138.577 255.28 139.353 256.251 139.661C257.235 139.925 258.218 139.789 259.2 139.251C260.576 138.499 261.221 137.344 261.135 135.786L269.936 130.971C270.462 132.799 270.544 134.651 270.184 136.526C269.836 138.357 269.062 140.076 267.861 141.681C266.66 143.286 265.091 144.619 263.154 145.678C260.824 146.953 258.478 147.598 256.115 147.614C253.781 147.614 251.595 146.986 249.558 145.729C247.55 144.458 245.869 142.586 244.518 140.116C243.167 137.645 242.505 135.235 242.532 132.886C242.545 130.508 243.181 128.336 244.44 126.371C245.727 124.39 247.55 122.755 249.908 121.465C252.238 120.19 254.563 119.538 256.882 119.51C259.201 119.482 261.357 120.089 263.35 121.333C265.329 122.549 266.978 124.364 268.299 126.779ZM258.748 129.322C258.195 128.312 257.428 127.71 256.447 127.517C255.451 127.296 254.447 127.462 253.437 128.015C252.426 128.568 251.751 129.302 251.413 130.216C251.059 131.103 251.076 132.133 251.463 133.308L258.748 129.322ZM300.275 94.2955L307.176 121.214L297.912 126.282L286.795 113.761L291.216 129.945L281.994 134.99L263.091 114.636L271.302 110.144L282.525 124.358L277.451 106.781L286.294 101.943L298.508 115.67L292.526 98.5341L300.275 94.2955ZM325.772 111.424C323.638 112.591 321.537 113.285 319.469 113.504C317.413 113.681 315.556 113.42 313.898 112.722C312.253 111.981 310.944 110.855 309.971 109.344L317.972 104.967C318.499 105.664 319.173 106.061 319.993 106.16C320.813 106.259 321.658 106.07 322.528 105.594C323.202 105.225 323.658 104.793 323.898 104.297C324.137 103.802 324.134 103.329 323.888 102.88C323.566 102.29 323.005 102.032 322.206 102.104C321.406 102.177 320.171 102.452 318.499 102.929C316.63 103.513 315.019 103.902 313.665 104.095C312.312 104.288 310.953 104.138 309.589 103.644C308.253 103.135 307.139 102.067 306.248 100.438C305.48 99.0345 305.168 97.5639 305.312 96.0263C305.44 94.4606 306.05 92.9415 307.142 91.4692C308.261 89.9815 309.859 88.6694 311.937 87.5329C315.025 85.8436 317.868 85.2732 320.466 85.8217C323.064 86.3702 325.179 87.8029 326.811 90.1198L319.357 94.1972C318.802 93.516 318.151 93.1248 317.402 93.0235C316.667 92.8788 315.864 93.0445 314.993 93.5206C314.32 93.8892 313.869 94.2996 313.643 94.752C313.444 95.1889 313.467 95.632 313.713 96.0812C314.02 96.6426 314.581 96.9012 315.396 96.8568C316.195 96.7843 317.395 96.5108 318.996 96.0364C320.908 95.4646 322.548 95.0961 323.917 94.931C325.314 94.7505 326.71 94.9353 328.105 95.4852C329.513 95.9917 330.685 97.1012 331.622 98.8137C332.374 100.189 332.643 101.647 332.428 103.188C332.241 104.712 331.58 106.205 330.445 107.664C329.323 109.081 327.765 110.334 325.772 111.424Z"/>
</mask>
<path d="M62.9144 216.261L66.5081 222.83L58.5912 227.161L71.238 250.28L62.9843 254.795L50.3374 231.676L42.5048 235.961L38.9111 229.392L62.9144 216.261ZM79.8197 220.308C80.0089 218.454 80.5483 216.773 81.4378 215.265C82.3273 213.757 83.53 212.589 85.046 211.759L89.8605 220.56L87.5444 221.827C85.7477 222.81 84.6062 223.891 84.1198 225.069C83.6334 226.247 83.8663 227.706 84.8185 229.446L90.4624 239.764L82.2086 244.279L69.2853 220.654L77.5391 216.139L79.8197 220.308ZM117.004 209.542C117.357 210.188 117.668 210.857 117.937 211.548L102.314 220.095C103.104 221.34 103.985 222.117 104.956 222.425C105.94 222.689 106.923 222.552 107.905 222.015C109.281 221.262 109.926 220.107 109.839 218.55L118.641 213.735C119.166 215.563 119.249 217.414 118.889 219.289C118.541 221.121 117.767 222.839 116.566 224.445C115.365 226.05 113.796 227.382 111.859 228.442C109.529 229.717 107.182 230.362 104.82 230.378C102.486 230.378 100.3 229.75 98.2632 228.493C96.2543 227.221 94.5741 225.35 93.2227 222.879C91.8712 220.409 91.2094 217.999 91.2372 215.649C91.2496 213.272 91.8855 211.1 93.1447 209.135C94.432 207.154 96.2547 205.518 98.613 204.228C100.943 202.954 103.268 202.302 105.587 202.274C107.905 202.245 110.062 202.853 112.055 204.097C114.033 205.313 115.683 207.128 117.004 209.542ZM107.453 212.086C106.9 211.075 106.133 210.474 105.152 210.281C104.156 210.06 103.152 210.226 102.141 210.778C101.131 211.331 100.456 212.065 100.118 212.98C99.7637 213.866 99.7803 214.897 100.167 216.071L107.453 212.086ZM129.409 187.491C132.132 186.002 134.793 185.731 137.391 186.681C139.974 187.602 142.111 189.607 143.8 192.695L151.333 206.465L143.079 210.981L136.145 198.305C135.408 196.958 134.481 196.097 133.365 195.723C132.233 195.321 131.077 195.442 129.898 196.087C128.663 196.763 127.909 197.686 127.638 198.856C127.35 199.998 127.575 201.242 128.313 202.59L135.246 215.265L126.993 219.78L114.069 196.156L122.323 191.641L124.166 195.01C124.312 193.544 124.827 192.15 125.709 190.829C126.575 189.479 127.809 188.367 129.409 187.491ZM148.041 192.892C146.705 190.449 145.973 188.078 145.845 185.777C145.745 183.461 146.198 181.389 147.205 179.562C148.212 177.734 149.655 176.306 151.536 175.277C153.052 174.448 154.576 174.034 156.109 174.034C157.654 173.992 159.063 174.334 160.335 175.06L154.438 164.279L162.734 159.741L179.781 190.903L171.485 195.442L169.688 192.157C169.641 193.605 169.205 194.974 168.379 196.265C167.553 197.556 166.34 198.639 164.74 199.514C162.859 200.543 160.878 200.989 158.796 200.851C156.743 200.697 154.768 199.954 152.871 198.621C150.987 197.244 149.377 195.334 148.041 192.892ZM165.054 183.585C164.225 182.069 163.151 181.107 161.832 180.697C160.542 180.272 159.294 180.39 158.086 181.05C156.851 181.726 156.064 182.722 155.726 184.037C155.373 185.325 155.619 186.741 156.463 188.285C157.293 189.801 158.36 190.785 159.666 191.238C160.956 191.663 162.219 191.538 163.454 190.862C164.661 190.202 165.434 189.214 165.772 187.898C166.138 186.567 165.899 185.129 165.054 183.585ZM196.996 150.792L201.078 193.861L192.109 198.768L191.048 183.427L168.992 166.112L178.172 161.09L190.467 171.763L187.942 155.745L196.996 150.792ZM247.637 153.784L239.383 158.299L219.316 147.72L228.392 164.311L220.139 168.826L203.898 139.138L212.152 134.623L232.334 145.413L223.143 128.611L231.397 124.096L247.637 153.784ZM268.299 126.779C268.652 127.424 268.963 128.093 269.232 128.785L253.609 137.331C254.4 138.577 255.28 139.353 256.251 139.661C257.235 139.925 258.218 139.789 259.2 139.251C260.576 138.499 261.221 137.344 261.135 135.786L269.936 130.971C270.462 132.799 270.544 134.651 270.184 136.526C269.836 138.357 269.062 140.076 267.861 141.681C266.66 143.286 265.091 144.619 263.154 145.678C260.824 146.953 258.478 147.598 256.115 147.614C253.781 147.614 251.595 146.986 249.558 145.729C247.55 144.458 245.869 142.586 244.518 140.116C243.167 137.645 242.505 135.235 242.532 132.886C242.545 130.508 243.181 128.336 244.44 126.371C245.727 124.39 247.55 122.755 249.908 121.465C252.238 120.19 254.563 119.538 256.882 119.51C259.201 119.482 261.357 120.089 263.35 121.333C265.329 122.549 266.978 124.364 268.299 126.779ZM258.748 129.322C258.195 128.312 257.428 127.71 256.447 127.517C255.451 127.296 254.447 127.462 253.437 128.015C252.426 128.568 251.751 129.302 251.413 130.216C251.059 131.103 251.076 132.133 251.463 133.308L258.748 129.322ZM300.275 94.2955L307.176 121.214L297.912 126.282L286.795 113.761L291.216 129.945L281.994 134.99L263.091 114.636L271.302 110.144L282.525 124.358L277.451 106.781L286.294 101.943L298.508 115.67L292.526 98.5341L300.275 94.2955ZM325.772 111.424C323.638 112.591 321.537 113.285 319.469 113.504C317.413 113.681 315.556 113.42 313.898 112.722C312.253 111.981 310.944 110.855 309.971 109.344L317.972 104.967C318.499 105.664 319.173 106.061 319.993 106.16C320.813 106.259 321.658 106.07 322.528 105.594C323.202 105.225 323.658 104.793 323.898 104.297C324.137 103.802 324.134 103.329 323.888 102.88C323.566 102.29 323.005 102.032 322.206 102.104C321.406 102.177 320.171 102.452 318.499 102.929C316.63 103.513 315.019 103.902 313.665 104.095C312.312 104.288 310.953 104.138 309.589 103.644C308.253 103.135 307.139 102.067 306.248 100.438C305.48 99.0345 305.168 97.5639 305.312 96.0263C305.44 94.4606 306.05 92.9415 307.142 91.4692C308.261 89.9815 309.859 88.6694 311.937 87.5329C315.025 85.8436 317.868 85.2732 320.466 85.8217C323.064 86.3702 325.179 87.8029 326.811 90.1198L319.357 94.1972C318.802 93.516 318.151 93.1248 317.402 93.0235C316.667 92.8788 315.864 93.0445 314.993 93.5206C314.32 93.8892 313.869 94.2996 313.643 94.752C313.444 95.1889 313.467 95.632 313.713 96.0812C314.02 96.6426 314.581 96.9012 315.396 96.8568C316.195 96.7843 317.395 96.5108 318.996 96.0364C320.908 95.4646 322.548 95.0961 323.917 94.931C325.314 94.7505 326.71 94.9353 328.105 95.4852C329.513 95.9917 330.685 97.1012 331.622 98.8137C332.374 100.189 332.643 101.647 332.428 103.188C332.241 104.712 331.58 106.205 330.445 107.664C329.323 109.081 327.765 110.334 325.772 111.424Z" fill="#18181B"/>
<path d="M62.9144 216.261L63.7917 215.781L63.3118 214.904L62.4345 215.384L62.9144 216.261ZM66.5081 222.83L66.988 223.708L67.8653 223.228L67.3854 222.35L66.5081 222.83ZM58.5912 227.161L58.1113 226.284L57.234 226.764L57.7139 227.641L58.5912 227.161ZM71.238 250.28L71.7179 251.157L72.5953 250.677L72.1153 249.8L71.238 250.28ZM62.9843 254.795L62.107 255.275L62.5869 256.152L63.4642 255.672L62.9843 254.795ZM50.3374 231.676L51.2147 231.196L50.7348 230.319L49.8575 230.799L50.3374 231.676ZM42.5048 235.961L41.6275 236.441L42.1074 237.318L42.9847 236.838L42.5048 235.961ZM38.9111 229.392L38.4312 228.514L37.5539 228.994L38.0338 229.871L38.9111 229.392ZM62.0371 216.741L65.6307 223.31L67.3854 222.35L63.7917 215.781L62.0371 216.741ZM66.0281 221.953L58.1113 226.284L59.0711 228.038L66.988 223.708L66.0281 221.953ZM57.7139 227.641L70.3607 250.76L72.1153 249.8L59.4685 226.681L57.7139 227.641ZM70.7581 249.403L62.5043 253.918L63.4642 255.672L71.7179 251.157L70.7581 249.403ZM63.8616 254.315L51.2147 231.196L49.4601 232.156L62.107 255.275L63.8616 254.315ZM49.8575 230.799L42.0249 235.084L42.9847 236.838L50.8173 232.553L49.8575 230.799ZM43.3821 235.481L39.7885 228.912L38.0338 229.871L41.6275 236.441L43.3821 235.481ZM39.3911 230.269L63.3943 217.138L62.4345 215.384L38.4312 228.514L39.3911 230.269ZM79.8197 220.308L78.9423 220.788L80.4875 223.613L80.8145 220.41L79.8197 220.308ZM85.046 211.759L85.9233 211.279L85.4434 210.402L84.5661 210.882L85.046 211.759ZM89.8605 220.56L90.3405 221.438L91.2178 220.958L90.7379 220.081L89.8605 220.56ZM84.1198 225.069L85.0441 225.45L84.1198 225.069ZM90.4624 239.764L90.9423 240.641L91.8196 240.161L91.3397 239.284L90.4624 239.764ZM82.2086 244.279L81.3313 244.759L81.8112 245.636L82.6885 245.156L82.2086 244.279ZM69.2853 220.654L68.8054 219.777L67.9281 220.257L68.408 221.134L69.2853 220.654ZM77.5391 216.139L78.4164 215.659L77.9365 214.782L77.0592 215.262L77.5391 216.139ZM80.8145 220.41C80.9901 218.69 81.4876 217.149 82.2991 215.773L80.5765 214.757C79.609 216.397 79.0278 218.218 78.8248 220.207L80.8145 220.41ZM82.2991 215.773C83.0983 214.418 84.1702 213.378 85.5259 212.637L84.5661 210.882C82.8898 211.799 81.5562 213.096 80.5765 214.757L82.2991 215.773ZM84.1687 212.239L88.9832 221.04L90.7379 220.081L85.9233 211.279L84.1687 212.239ZM89.3806 219.683L87.0645 220.95L88.0244 222.705L90.3405 221.438L89.3806 219.683ZM87.0645 220.95C85.1808 221.981 83.8081 223.203 83.1955 224.687L85.0441 225.45C85.4042 224.578 86.3146 223.64 88.0244 222.705L87.0645 220.95ZM83.1955 224.687C82.5416 226.271 82.9253 228.069 83.9412 229.926L85.6958 228.967C84.8073 227.342 84.7252 226.223 85.0441 225.45L83.1955 224.687ZM83.9412 229.926L89.585 240.244L91.3397 239.284L85.6958 228.967L83.9412 229.926ZM89.9824 238.886L81.7287 243.401L82.6885 245.156L90.9423 240.641L89.9824 238.886ZM83.0859 243.799L70.1626 220.175L68.408 221.134L81.3313 244.759L83.0859 243.799ZM69.7652 221.532L78.019 217.017L77.0592 215.262L68.8054 219.777L69.7652 221.532ZM76.6618 216.619L78.9423 220.788L80.697 219.828L78.4164 215.659L76.6618 216.619ZM117.937 211.548L118.417 212.426L119.187 212.004L118.869 211.186L117.937 211.548ZM102.314 220.095L101.834 219.218L100.897 219.73L101.469 220.631L102.314 220.095ZM104.956 222.425L104.654 223.378L104.675 223.385L104.696 223.39L104.956 222.425ZM109.839 218.55L109.359 217.672L108.806 217.975L108.841 218.605L109.839 218.55ZM118.641 213.735L119.602 213.459L119.256 212.258L118.161 212.858L118.641 213.735ZM118.889 219.289L117.907 219.101L117.906 219.103L118.889 219.289ZM116.566 224.445L117.367 225.044L116.566 224.445ZM104.82 230.378L104.82 231.378L104.827 231.378L104.82 230.378ZM98.2632 228.493L97.7282 229.338L97.7382 229.344L98.2632 228.493ZM91.2372 215.649L92.2371 215.661L92.2372 215.654L91.2372 215.649ZM93.1447 209.135L92.3062 208.59L92.3027 208.595L93.1447 209.135ZM105.587 202.274L105.574 201.274L105.587 202.274ZM112.055 204.097L111.526 204.945L111.532 204.949L112.055 204.097ZM107.453 212.086L107.932 212.963L108.81 212.483L108.33 211.606L107.453 212.086ZM105.152 210.281L104.935 211.257L104.947 211.26L104.959 211.262L105.152 210.281ZM100.118 212.98L101.046 213.351L101.051 213.339L101.055 213.327L100.118 212.98ZM100.167 216.071L99.2176 216.384L99.5936 217.525L100.647 216.949L100.167 216.071ZM116.126 210.022C116.459 210.63 116.751 211.259 117.005 211.911L118.869 211.186C118.584 210.454 118.255 209.746 117.881 209.062L116.126 210.022ZM117.457 210.671L101.834 219.218L102.794 220.972L118.417 212.426L117.457 210.671ZM101.469 220.631C102.331 221.988 103.377 222.973 104.654 223.378L105.258 221.471C104.593 221.26 103.878 220.693 103.158 219.559L101.469 220.631ZM104.696 223.39C105.954 223.729 107.201 223.54 108.385 222.892L107.425 221.138C106.644 221.565 105.925 221.649 105.216 221.459L104.696 223.39ZM108.385 222.892C109.207 222.443 109.864 221.842 110.294 221.072C110.724 220.301 110.889 219.428 110.838 218.494L108.841 218.605C108.875 219.229 108.762 219.712 108.547 220.097C108.332 220.482 107.979 220.835 107.425 221.138L108.385 222.892ZM110.319 219.427L119.12 214.612L118.161 212.858L109.359 217.672L110.319 219.427ZM117.68 214.011C118.162 215.687 118.237 217.38 117.907 219.101L119.871 219.478C120.261 217.449 120.171 215.438 119.602 213.459L117.68 214.011ZM117.906 219.103C117.589 220.774 116.882 222.353 115.765 223.846L117.367 225.044C118.652 223.326 119.493 221.468 119.871 219.476L117.906 219.103ZM115.765 223.846C114.658 225.325 113.203 226.567 111.379 227.565L112.339 229.319C114.389 228.198 116.071 226.775 117.367 225.044L115.765 223.846ZM111.379 227.565C109.176 228.77 106.991 229.363 104.813 229.378L104.827 231.378C107.374 231.361 109.882 230.663 112.339 229.319L111.379 227.565ZM104.82 229.378C102.676 229.378 100.672 228.804 98.7882 227.642L97.7382 229.344C99.9288 230.696 102.296 231.378 104.82 231.378L104.82 229.378ZM98.7982 227.648C96.9568 226.482 95.3851 224.749 94.1 222.399L92.3454 223.359C93.7632 225.951 95.5519 227.96 97.7283 229.338L98.7982 227.648ZM94.1 222.399C92.8146 220.05 92.2117 217.808 92.2371 215.661L90.2373 215.637C90.2071 218.19 90.9278 220.768 92.3454 223.359L94.1 222.399ZM92.2372 215.654C92.2486 213.462 92.8317 211.477 93.9867 209.674L92.3027 208.595C90.9392 210.723 90.2506 213.081 90.2372 215.644L92.2372 215.654ZM93.9832 209.679C95.1685 207.856 96.8596 206.327 99.0929 205.106L98.133 203.351C95.6499 204.709 93.6955 206.452 92.3062 208.59L93.9832 209.679ZM99.0929 205.106C101.301 203.898 103.466 203.3 105.599 203.274L105.574 201.274C103.069 201.304 100.586 202.009 98.133 203.351L99.0929 205.106ZM105.599 203.274C107.724 203.248 109.692 203.801 111.526 204.945L112.585 203.249C110.431 201.905 108.087 201.243 105.574 201.274L105.599 203.274ZM111.532 204.949C113.336 206.058 114.873 207.732 116.126 210.022L117.881 209.062C116.492 206.524 114.731 204.568 112.579 203.245L111.532 204.949ZM108.33 211.606C107.659 210.379 106.663 209.559 105.345 209.299L104.959 211.262C105.602 211.388 106.141 211.771 106.575 212.566L108.33 211.606ZM105.368 209.304C104.105 209.024 102.855 209.248 101.662 209.901L102.621 211.656C103.449 211.203 104.206 211.095 104.935 211.257L105.368 209.304ZM101.662 209.901C100.48 210.548 99.6168 211.452 99.1798 212.633L101.055 213.327C101.296 212.678 101.782 212.115 102.621 211.656L101.662 209.901ZM99.1889 212.609C98.7248 213.772 98.7791 215.054 99.2176 216.384L101.117 215.758C100.782 214.74 100.803 213.961 101.046 213.351L99.1889 212.609ZM100.647 216.949L107.932 212.963L106.973 211.209L99.6874 215.194L100.647 216.949ZM137.391 186.681L137.048 187.62L137.055 187.623L137.391 186.681ZM151.333 206.465L151.813 207.343L152.69 206.863L152.21 205.986L151.333 206.465ZM143.079 210.981L142.202 211.46L142.682 212.338L143.559 211.858L143.079 210.981ZM133.365 195.723L133.03 196.665L133.038 196.668L133.047 196.671L133.365 195.723ZM127.638 198.856L128.607 199.1L128.61 199.091L128.612 199.082L127.638 198.856ZM135.246 215.265L135.726 216.143L136.604 215.663L136.124 214.785L135.246 215.265ZM126.993 219.78L126.115 220.26L126.595 221.138L127.473 220.658L126.993 219.78ZM114.069 196.156L113.589 195.279L112.712 195.759L113.192 196.636L114.069 196.156ZM122.323 191.641L123.2 191.161L122.721 190.284L121.843 190.764L122.323 191.641ZM124.166 195.01L123.289 195.49L124.84 198.326L125.161 195.109L124.166 195.01ZM125.709 190.829L126.54 191.384L126.545 191.376L126.55 191.369L125.709 190.829ZM129.889 188.369C132.394 186.998 134.755 186.782 137.048 187.62L137.735 185.742C134.831 184.681 131.87 185.005 128.929 186.614L129.889 188.369ZM137.055 187.623C139.348 188.44 141.317 190.239 142.923 193.175L144.677 192.215C142.905 188.975 140.601 186.764 137.727 185.739L137.055 187.623ZM142.923 193.175L150.456 206.945L152.21 205.986L144.677 192.215L142.923 193.175ZM150.853 205.588L142.599 210.103L143.559 211.858L151.813 207.343L150.853 205.588ZM143.956 210.501L137.022 197.825L135.268 198.785L142.202 211.46L143.956 210.501ZM137.022 197.825C136.202 196.326 135.103 195.251 133.682 194.774L133.047 196.671C133.859 196.943 134.614 197.589 135.268 198.785L137.022 197.825ZM133.699 194.78C132.266 194.271 130.814 194.446 129.418 195.21L130.378 196.964C131.34 196.438 132.2 196.37 133.03 196.665L133.699 194.78ZM129.418 195.21C127.98 195.996 127.011 197.133 126.664 198.629L128.612 199.082C128.808 198.238 129.346 197.529 130.378 196.964L129.418 195.21ZM126.668 198.612C126.302 200.065 126.615 201.57 127.435 203.07L129.19 202.11C128.536 200.914 128.399 199.93 128.607 199.1L126.668 198.612ZM127.435 203.07L134.369 215.745L136.124 214.785L129.19 202.11L127.435 203.07ZM134.766 214.388L126.513 218.903L127.473 220.658L135.726 216.143L134.766 214.388ZM127.87 219.3L114.947 195.676L113.192 196.636L126.115 220.26L127.87 219.3ZM114.549 197.033L122.803 192.518L121.843 190.764L113.589 195.279L114.549 197.033ZM121.446 192.121L123.289 195.49L125.043 194.53L123.2 191.161L121.446 192.121ZM125.161 195.109C125.29 193.819 125.742 192.58 126.54 191.384L124.877 190.273C123.911 191.72 123.335 193.269 123.171 194.911L125.161 195.109ZM126.55 191.369C127.314 190.179 128.415 189.175 129.889 188.369L128.929 186.614C127.202 187.558 125.836 188.78 124.867 190.288L126.55 191.369ZM145.845 185.777L144.846 185.82L144.847 185.832L145.845 185.777ZM147.205 179.562L146.329 179.079L147.205 179.562ZM156.109 174.034L156.108 175.034L156.122 175.034L156.136 175.034L156.109 174.034ZM160.335 175.06L159.84 175.928L162.908 177.679L161.213 174.58L160.335 175.06ZM154.438 164.279L153.958 163.402L153.081 163.882L153.561 164.759L154.438 164.279ZM162.734 159.741L163.611 159.261L163.131 158.384L162.254 158.864L162.734 159.741ZM179.781 190.903L180.261 191.781L181.138 191.301L180.658 190.424L179.781 190.903ZM171.485 195.442L170.608 195.921L171.088 196.799L171.965 196.319L171.485 195.442ZM169.688 192.157L170.565 191.677L168.807 188.462L168.689 192.125L169.688 192.157ZM168.379 196.265L167.537 195.726L168.379 196.265ZM158.796 200.851L158.722 201.848L158.73 201.849L158.796 200.851ZM152.871 198.621L152.281 199.428L152.288 199.434L152.296 199.439L152.871 198.621ZM161.832 180.697L161.52 181.647L161.528 181.649L161.536 181.652L161.832 180.697ZM155.726 184.037L156.691 184.302L156.693 184.294L156.695 184.286L155.726 184.037ZM159.666 191.238L159.338 192.183L159.345 192.186L159.353 192.188L159.666 191.238ZM165.772 187.898L164.807 187.633L164.805 187.641L164.803 187.649L165.772 187.898ZM148.918 192.412C147.639 190.073 146.962 187.846 146.843 185.721L144.847 185.832C144.984 188.31 145.771 190.826 147.164 193.372L148.918 192.412ZM146.844 185.734C146.751 183.58 147.172 181.693 148.081 180.044L146.329 179.079C145.224 181.084 144.739 183.342 144.846 185.82L146.844 185.734ZM148.081 180.044C148.993 178.388 150.297 177.095 152.016 176.155L151.056 174.4C149.013 175.518 147.43 177.081 146.329 179.079L148.081 180.044ZM152.016 176.155C153.404 175.396 154.764 175.034 156.108 175.034L156.109 173.034C154.389 173.034 152.701 173.501 151.056 174.4L152.016 176.155ZM156.136 175.034C157.509 174.996 158.735 175.298 159.84 175.928L160.831 174.191C159.39 173.369 157.799 172.987 156.081 173.035L156.136 175.034ZM161.213 174.58L155.315 163.8L153.561 164.759L159.458 175.54L161.213 174.58ZM154.918 165.157L163.214 160.619L162.254 158.864L153.958 163.402L154.918 165.157ZM161.857 160.221L178.903 191.383L180.658 190.424L163.611 159.261L161.857 160.221ZM179.301 190.026L171.005 194.564L171.965 196.319L180.261 191.781L179.301 190.026ZM172.362 194.962L170.565 191.677L168.811 192.637L170.608 195.921L172.362 194.962ZM168.689 192.125C168.648 193.382 168.271 194.578 167.537 195.726L169.221 196.804C170.139 195.371 170.635 193.828 170.688 192.189L168.689 192.125ZM167.537 195.726C166.817 196.851 165.741 197.827 164.26 198.637L165.22 200.392C166.939 199.451 168.289 198.261 169.221 196.804L167.537 195.726ZM164.26 198.637C162.541 199.577 160.749 199.978 158.862 199.853L158.73 201.849C161.007 201.999 163.177 201.509 165.22 200.392L164.26 198.637ZM158.871 199.854C157.019 199.715 155.214 199.046 153.446 197.803L152.296 199.439C154.321 200.863 156.466 201.68 158.722 201.848L158.871 199.854ZM153.461 197.813C151.717 196.538 150.197 194.75 148.918 192.412L147.164 193.372C148.557 195.919 150.258 197.95 152.281 199.428L153.461 197.813ZM165.931 183.105C165.01 181.422 163.754 180.247 162.129 179.742L161.536 181.652C162.548 181.966 163.439 182.717 164.177 184.065L165.931 183.105ZM162.145 179.747C160.588 179.234 159.053 179.382 157.606 180.173L158.566 181.927C159.534 181.398 160.496 181.31 161.52 181.647L162.145 179.747ZM157.606 180.173C156.138 180.976 155.168 182.194 154.758 183.788L156.695 184.286C156.961 183.249 157.564 182.476 158.566 181.927L157.606 180.173ZM154.762 183.773C154.32 185.382 154.658 187.068 155.586 188.765L157.341 187.805C156.579 186.414 156.426 185.268 156.691 184.302L154.762 183.773ZM155.586 188.765C156.503 190.442 157.743 191.63 159.338 192.183L159.993 190.293C158.977 189.941 158.082 189.16 157.341 187.805L155.586 188.765ZM159.353 192.188C160.916 192.703 162.466 192.542 163.934 191.739L162.974 189.985C161.971 190.533 160.995 190.623 159.978 190.288L159.353 192.188ZM163.934 191.739C165.38 190.948 166.332 189.734 166.74 188.147L164.803 187.649C164.535 188.693 163.942 189.455 162.974 189.985L163.934 191.739ZM166.736 188.163C167.188 186.518 166.865 184.812 165.931 183.105L164.177 184.065C164.932 185.447 165.087 186.616 164.807 187.633L166.736 188.163ZM196.996 150.792L197.991 150.698L197.848 149.186L196.516 149.915L196.996 150.792ZM201.078 193.861L201.558 194.739L202.136 194.423L202.074 193.767L201.078 193.861ZM192.109 198.768L191.111 198.837L191.219 200.395L192.588 199.645L192.109 198.768ZM191.048 183.427L192.046 183.358L192.015 182.915L191.665 182.64L191.048 183.427ZM168.992 166.112L168.512 165.234L167.182 165.962L168.374 166.898L168.992 166.112ZM178.172 161.09L178.828 160.334L178.302 159.879L177.692 160.212L178.172 161.09ZM190.467 171.763L189.811 172.518L191.881 174.315L191.455 171.607L190.467 171.763ZM187.942 155.745L187.462 154.868L186.845 155.206L186.954 155.901L187.942 155.745ZM196 150.887L200.083 193.956L202.074 193.767L197.991 150.698L196 150.887ZM200.598 192.984L191.629 197.891L192.588 199.645L201.558 194.739L200.598 192.984ZM193.106 198.699L192.046 183.358L190.05 183.496L191.111 198.837L193.106 198.699ZM191.665 182.64L169.609 165.325L168.374 166.898L190.43 184.213L191.665 182.64ZM169.472 166.989L178.652 161.967L177.692 160.212L168.512 165.234L169.472 166.989ZM177.517 161.845L189.811 172.518L191.122 171.008L178.828 160.334L177.517 161.845ZM191.455 171.607L188.93 155.59L186.954 155.901L189.479 171.918L191.455 171.607ZM188.422 156.623L197.476 151.67L196.516 149.915L187.462 154.868L188.422 156.623ZM247.637 153.784L248.117 154.661L248.994 154.181L248.514 153.304L247.637 153.784ZM239.383 158.299L238.917 159.183L239.392 159.434L239.863 159.176L239.383 158.299ZM219.316 147.72L219.782 146.835L216.845 145.286L218.439 148.199L219.316 147.72ZM228.392 164.311L228.872 165.189L229.75 164.709L229.27 163.831L228.392 164.311ZM220.139 168.826L219.261 169.306L219.741 170.184L220.618 169.704L220.139 168.826ZM203.898 139.138L203.418 138.261L202.541 138.741L203.021 139.618L203.898 139.138ZM212.152 134.623L212.623 133.741L212.146 133.486L211.672 133.746L212.152 134.623ZM232.334 145.413L231.863 146.295L234.822 147.877L233.212 144.933L232.334 145.413ZM223.143 128.611L222.663 127.733L221.786 128.213L222.265 129.091L223.143 128.611ZM231.397 124.096L232.274 123.616L231.794 122.738L230.917 123.218L231.397 124.096ZM247.157 152.906L238.903 157.422L239.863 159.176L248.117 154.661L247.157 152.906ZM239.85 157.414L219.782 146.835L218.85 148.604L238.917 159.183L239.85 157.414ZM218.439 148.199L227.515 164.791L229.27 163.831L220.193 147.24L218.439 148.199ZM227.912 163.434L219.659 167.949L220.618 169.704L228.872 165.189L227.912 163.434ZM221.016 168.346L204.775 138.658L203.021 139.618L219.261 169.306L221.016 168.346ZM204.378 140.015L212.632 135.5L211.672 133.746L203.418 138.261L204.378 140.015ZM211.68 135.505L231.863 146.295L232.806 144.531L212.623 133.741L211.68 135.505ZM233.212 144.933L224.02 128.131L222.265 129.091L231.457 145.893L233.212 144.933ZM223.623 129.488L231.876 124.973L230.917 123.218L222.663 127.733L223.623 129.488ZM230.519 124.575L246.76 154.264L248.514 153.304L232.274 123.616L230.519 124.575ZM269.232 128.785L269.712 129.662L270.482 129.241L270.164 128.422L269.232 128.785ZM253.609 137.331L253.129 136.454L252.193 136.966L252.765 137.867L253.609 137.331ZM256.251 139.661L255.949 140.614L255.97 140.621L255.992 140.627L256.251 139.661ZM261.135 135.786L260.655 134.909L260.101 135.211L260.136 135.841L261.135 135.786ZM269.936 130.971L270.897 130.695L270.552 129.495L269.456 130.094L269.936 130.971ZM270.184 136.526L269.202 136.337L269.201 136.339L270.184 136.526ZM267.861 141.681L268.662 142.28L267.861 141.681ZM256.115 147.614L256.115 148.614L256.122 148.614L256.115 147.614ZM249.559 145.729L249.024 146.574L249.033 146.581L249.559 145.729ZM242.532 132.886L243.532 132.897L243.532 132.891L242.532 132.886ZM244.44 126.371L243.601 125.826L243.598 125.831L244.44 126.371ZM256.882 119.51L256.87 118.51L256.882 119.51ZM263.35 121.333L262.821 122.182L262.827 122.185L263.35 121.333ZM258.748 129.322L259.228 130.2L260.105 129.72L259.625 128.842L258.748 129.322ZM256.447 127.517L256.231 128.493L256.242 128.496L256.254 128.498L256.447 127.517ZM251.413 130.216L252.342 130.587L252.346 130.575L252.351 130.563L251.413 130.216ZM251.463 133.308L250.513 133.621L250.889 134.761L251.943 134.185L251.463 133.308ZM267.421 127.259C267.754 127.866 268.047 128.495 268.3 129.147L270.164 128.422C269.88 127.691 269.55 126.983 269.176 126.299L267.421 127.259ZM268.752 127.907L253.129 136.454L254.089 138.209L269.712 129.662L268.752 127.907ZM252.765 137.867C253.626 139.224 254.672 140.209 255.949 140.614L256.553 138.708C255.888 138.497 255.173 137.929 254.453 136.795L252.765 137.867ZM255.992 140.627C257.25 140.965 258.496 140.776 259.68 140.129L258.721 138.374C257.939 138.801 257.22 138.886 256.511 138.695L255.992 140.627ZM259.68 140.129C260.502 139.679 261.159 139.078 261.589 138.308C262.019 137.537 262.185 136.664 262.133 135.731L260.136 135.841C260.171 136.465 260.057 136.949 259.843 137.333C259.628 137.718 259.274 138.071 258.721 138.374L259.68 140.129ZM261.615 136.663L270.416 131.849L269.456 130.094L260.655 134.909L261.615 136.663ZM268.975 131.248C269.457 132.924 269.533 134.616 269.202 136.337L271.166 136.714C271.556 134.686 271.466 132.675 270.897 130.695L268.975 131.248ZM269.201 136.339C268.884 138.01 268.177 139.589 267.06 141.082L268.662 142.28C269.947 140.562 270.788 138.704 271.166 136.712L269.201 136.339ZM267.06 141.082C265.954 142.561 264.498 143.803 262.674 144.801L263.634 146.556C265.684 145.434 267.367 144.011 268.662 142.28L267.06 141.082ZM262.674 144.801C260.471 146.006 258.286 146.6 256.109 146.614L256.122 148.614C258.669 148.597 261.177 147.9 263.634 146.556L262.674 144.801ZM256.115 146.614C253.971 146.614 251.967 146.04 250.084 144.878L249.033 146.581C251.224 147.932 253.591 148.614 256.115 148.614L256.115 146.614ZM250.093 144.885C248.252 143.719 246.68 141.985 245.395 139.636L243.641 140.596C245.058 143.187 246.847 145.196 249.024 146.574L250.093 144.885ZM245.395 139.636C244.11 137.286 243.507 135.044 243.532 132.897L241.533 132.874C241.502 135.426 242.223 138.004 243.641 140.596L245.395 139.636ZM243.532 132.891C243.544 130.699 244.127 128.713 245.282 126.91L243.598 125.831C242.235 127.96 241.546 130.317 241.532 132.88L243.532 132.891ZM245.278 126.916C246.464 125.092 248.155 123.564 250.388 122.342L249.428 120.587C246.945 121.946 244.991 123.688 243.601 125.826L245.278 126.916ZM250.388 122.342C252.596 121.134 254.761 120.536 256.894 120.51L256.87 118.51C254.365 118.541 251.881 119.246 249.428 120.587L250.388 122.342ZM256.894 120.51C259.019 120.484 260.988 121.038 262.821 122.182L263.88 120.485C261.726 119.141 259.382 118.479 256.87 118.51L256.894 120.51ZM262.827 122.185C264.631 123.294 266.169 124.968 267.421 127.259L269.176 126.299C267.787 123.76 266.026 121.804 263.874 120.481L262.827 122.185ZM259.625 128.842C258.954 127.616 257.958 126.795 256.64 126.536L256.254 128.498C256.898 128.625 257.436 129.008 257.871 129.802L259.625 128.842ZM256.664 126.541C255.4 126.261 254.151 126.484 252.957 127.138L253.917 128.892C254.744 128.44 255.501 128.332 256.231 128.493L256.664 126.541ZM252.957 127.138C251.775 127.784 250.912 128.689 250.475 129.869L252.351 130.563C252.591 129.915 253.077 129.351 253.917 128.892L252.957 127.138ZM250.484 129.845C250.02 131.008 250.074 132.29 250.513 133.621L252.412 132.995C252.077 131.977 252.098 131.198 252.342 130.587L250.484 129.845ZM251.943 134.185L259.228 130.2L258.268 128.445L250.983 132.43L251.943 134.185ZM300.275 94.2955L301.243 94.0471L300.924 92.8006L299.795 93.4181L300.275 94.2955ZM307.176 121.214L307.656 122.091L308.338 121.718L308.145 120.966L307.176 121.214ZM297.912 126.282L297.164 126.946L297.693 127.541L298.392 127.159L297.912 126.282ZM286.795 113.761L287.543 113.097L285.83 114.024L286.795 113.761ZM291.216 129.945L291.696 130.822L292.389 130.443L292.181 129.681L291.216 129.945ZM281.994 134.99L281.261 135.67L281.791 136.24L282.474 135.867L281.994 134.99ZM263.091 114.636L262.611 113.759L261.484 114.376L262.358 115.317L263.091 114.636ZM271.302 110.144L272.087 109.525L271.564 108.862L270.822 109.267L271.302 110.144ZM282.525 124.358L281.74 124.978L283.486 124.081L282.525 124.358ZM277.451 106.781L276.971 105.904L276.267 106.288L276.49 107.058L277.451 106.781ZM286.294 101.943L287.041 101.279L286.512 100.684L285.814 101.066L286.294 101.943ZM298.508 115.67L297.761 116.335L299.452 115.34L298.508 115.67ZM292.526 98.5341L292.046 97.6568L291.303 98.0635L291.582 98.8637L292.526 98.5341ZM299.306 94.5438L306.207 121.462L308.145 120.966L301.243 94.0471L299.306 94.5438ZM306.696 120.337L297.432 125.405L298.392 127.159L307.656 122.091L306.696 120.337ZM298.659 125.618L287.543 113.097L286.047 114.425L297.164 126.946L298.659 125.618ZM285.83 114.024L290.251 130.208L292.181 129.681L287.759 113.497L285.83 114.024ZM290.736 129.067L281.514 134.112L282.474 135.867L291.696 130.822L290.736 129.067ZM282.726 134.309L263.823 113.956L262.358 115.317L281.261 135.67L282.726 134.309ZM263.571 115.514L271.782 111.022L270.822 109.267L262.611 113.759L263.571 115.514ZM270.517 110.764L281.74 124.978L283.31 123.739L272.087 109.525L270.517 110.764ZM283.486 124.081L278.411 106.504L276.49 107.058L281.564 124.636L283.486 124.081ZM277.93 107.658L286.774 102.821L285.814 101.066L276.971 105.904L277.93 107.658ZM285.547 102.608L297.761 116.335L299.255 115.005L287.041 101.279L285.547 102.608ZM299.452 115.34L293.47 98.2045L291.582 98.8637L297.564 115.999L299.452 115.34ZM293.006 99.4114L300.755 95.1728L299.795 93.4181L292.046 97.6568L293.006 99.4114ZM319.469 113.504L319.554 114.501L319.565 114.5L319.575 114.499L319.469 113.504ZM313.898 112.722L313.487 113.634L313.499 113.639L313.51 113.644L313.898 112.722ZM309.971 109.344L309.491 108.467L308.549 108.982L309.13 109.885L309.971 109.344ZM317.972 104.967L318.77 104.364L318.249 103.676L317.492 104.09L317.972 104.967ZM322.206 102.104L322.115 101.108L322.206 102.104ZM318.499 102.929L318.224 101.967L318.212 101.971L318.2 101.974L318.499 102.929ZM313.665 104.095L313.807 105.085L313.665 104.095ZM309.589 103.644L309.233 104.579L309.241 104.582L309.249 104.585L309.589 103.644ZM305.312 96.0263L306.308 96.1193L306.309 96.1079L305.312 96.0263ZM307.142 91.4692L306.342 90.8679L306.338 90.8737L307.142 91.4692ZM320.466 85.8217L320.259 86.8001L320.466 85.8217ZM326.811 90.1198L327.291 90.9971L328.274 90.4596L327.629 89.5439L326.811 90.1198ZM319.357 94.1972L318.582 94.8288L319.108 95.4737L319.837 95.0745L319.357 94.1972ZM317.402 93.0235L317.209 94.0047L317.239 94.0105L317.268 94.0145L317.402 93.0235ZM313.643 94.752L312.749 94.3038L312.74 94.3208L312.732 94.338L313.643 94.752ZM315.396 96.8568L315.45 97.8553L315.468 97.8543L315.486 97.8527L315.396 96.8568ZM318.996 96.0364L319.28 96.9952L319.282 96.9945L318.996 96.0364ZM323.917 94.931L324.037 95.9238L324.045 95.9227L323.917 94.931ZM328.105 95.4852L327.738 96.4155L327.752 96.4211L327.766 96.4262L328.105 95.4852ZM332.428 103.188L331.437 103.049L331.436 103.057L331.435 103.066L332.428 103.188ZM330.445 107.664L331.229 108.285L331.234 108.278L330.445 107.664ZM325.292 110.547C323.255 111.661 321.28 112.306 319.363 112.51L319.575 114.499C321.795 114.263 324.022 113.522 326.252 112.302L325.292 110.547ZM319.384 112.508C317.466 112.672 315.774 112.427 314.286 111.8L313.51 113.644C315.339 114.413 317.361 114.689 319.554 114.501L319.384 112.508ZM314.309 111.81C312.839 111.148 311.679 110.15 310.812 108.803L309.13 109.885C310.208 111.559 311.667 112.814 313.487 113.634L314.309 111.81ZM310.451 110.221L318.452 105.845L317.492 104.09L309.491 108.467L310.451 110.221ZM317.175 105.571C317.855 106.47 318.767 107.02 319.873 107.153L320.112 105.167C319.579 105.103 319.144 104.858 318.77 104.364L317.175 105.571ZM319.873 107.153C320.939 107.281 321.992 107.027 323.008 106.471L322.048 104.717C321.323 105.113 320.686 105.236 320.112 105.167L319.873 107.153ZM323.008 106.471C323.794 106.041 324.439 105.477 324.798 104.732L322.997 103.862C322.878 104.109 322.609 104.41 322.048 104.717L323.008 106.471ZM324.798 104.732C325.166 103.971 325.18 103.157 324.766 102.4L323.011 103.36C323.089 103.502 323.109 103.632 322.997 103.862L324.798 104.732ZM324.766 102.4C324.511 101.935 324.137 101.563 323.644 101.336C323.164 101.114 322.639 101.061 322.115 101.108L322.296 103.1C322.572 103.075 322.727 103.115 322.807 103.152C322.875 103.184 322.943 103.236 323.011 103.36L324.766 102.4ZM322.115 101.108C321.216 101.19 319.904 101.488 318.224 101.967L318.773 103.89C320.438 103.415 321.597 103.164 322.296 103.1L322.115 101.108ZM318.2 101.974C316.363 102.549 314.807 102.922 313.524 103.105L313.807 105.085C315.231 104.882 316.897 104.477 318.797 103.883L318.2 101.974ZM313.524 103.105C312.343 103.274 311.149 103.146 309.929 102.704L309.249 104.585C310.757 105.131 312.281 105.303 313.807 105.085L313.524 103.105ZM309.945 102.71C308.89 102.308 307.937 101.441 307.126 99.9583L305.371 100.918C306.341 102.692 307.615 103.962 309.233 104.579L309.945 102.71ZM307.126 99.9583C306.45 98.7228 306.183 97.451 306.308 96.1193L304.316 95.9332C304.153 97.6768 304.511 99.3462 305.371 100.918L307.126 99.9583ZM306.309 96.1079C306.419 94.7574 306.946 93.4125 307.945 92.0646L306.338 90.8737C305.155 92.4706 304.461 94.1638 304.315 95.9446L306.309 96.1079ZM307.941 92.0704C308.954 90.7228 310.431 89.4963 312.417 88.4102L311.457 86.6556C309.287 87.8424 307.567 89.2401 306.342 90.868L307.941 92.0704ZM312.417 88.4102C315.364 86.7977 317.962 86.3151 320.259 86.8001L320.672 84.8432C317.774 84.2313 314.685 84.8895 311.457 86.6556L312.417 88.4102ZM320.259 86.8001C322.592 87.2927 324.496 88.5701 325.994 90.6957L327.629 89.5439C325.862 87.0357 323.535 85.4476 320.672 84.8432L320.259 86.8001ZM326.331 89.2425L318.878 93.3199L319.837 95.0745L327.291 90.9971L326.331 89.2425ZM320.133 93.5655C319.445 92.7219 318.577 92.1733 317.536 92.0325L317.268 94.0145C317.724 94.0762 318.16 94.31 318.582 94.8288L320.133 93.5655ZM317.595 92.0423C316.565 91.8397 315.522 92.0915 314.513 92.6433L315.473 94.3979C316.205 93.9975 316.768 93.918 317.209 94.0047L317.595 92.0423ZM314.513 92.6433C313.748 93.0621 313.103 93.5978 312.749 94.3038L314.537 95.2001C314.636 95.0015 314.891 94.7163 315.473 94.3979L314.513 92.6433ZM312.732 94.338C312.394 95.0831 312.451 95.8572 312.836 96.5611L314.59 95.6012C314.484 95.4068 314.494 95.2947 314.553 95.1659L312.732 94.338ZM312.836 96.5611C313.382 97.559 314.378 97.9138 315.45 97.8553L315.341 95.8583C314.785 95.8886 314.659 95.7263 314.59 95.6012L312.836 96.5611ZM315.486 97.8527C316.389 97.7708 317.668 97.4728 319.28 96.9952L318.712 95.0776C317.122 95.5489 316.001 95.7978 315.306 95.8609L315.486 97.8527ZM319.282 96.9945C321.162 96.4324 322.743 96.0798 324.037 95.9238L323.797 93.9382C322.353 94.1124 320.654 94.4968 318.709 95.0784L319.282 96.9945ZM324.045 95.9227C325.264 95.7653 326.49 95.9234 327.738 96.4155L328.472 94.5549C326.93 93.9471 325.364 93.7357 323.789 93.9392L324.045 95.9227ZM327.766 96.4262C328.881 96.8274 329.888 97.7287 330.744 99.2937L332.499 98.3338C331.482 96.4737 330.144 95.156 328.443 94.5443L327.766 96.4262ZM330.744 99.2937C331.395 100.482 331.622 101.724 331.437 103.049L333.418 103.326C333.663 101.571 333.354 99.8964 332.499 98.3338L330.744 99.2937ZM331.435 103.066C331.274 104.378 330.702 105.704 329.655 107.051L331.234 108.278C332.457 106.705 333.207 105.047 333.42 103.309L331.435 103.066ZM329.661 107.043C328.641 108.331 327.197 109.505 325.292 110.547L326.252 112.302C328.334 111.163 330.005 109.83 331.229 108.285L329.661 107.043Z" fill="#696969" mask="url(#path-2-outside-1_14_2)"/>
</svg>
